<?xml version="1.0" standalone="no"?>
<!DOCTYPE svg PUBLIC "-//W3C//DTD SVG 20010904//EN"
 "http://www.w3.org/TR/2001/REC-SVG-20010904/DTD/svg10.dtd">
<svg version="1.0" xmlns="http://www.w3.org/2000/svg"
 width="260.000000pt" height="260.000000pt" viewBox="0 0 260.000000 260.000000"
 preserveAspectRatio="xMidYMid meet">

<g transform="translate(0.000000,260.000000) scale(0.100000,-0.100000)"
fill="#000000" stroke="none">
<path d="M684 1936 l-39 -34 -3 -586 c-3 -648 -5 -626 61 -666 31 -19 54 -20
607 -20 552 0 576 1 604 19 57 38 55 19 56 648 0 355 -4 592 -10 607 -5 14
-24 35 -42 46 -32 19 -51 20 -614 20 l-581 0 -39 -34z m566 -326 c0 -16 -12
-49 -27 -74 l-27 -45 -81 -3 -80 -3 0 -55 0 -55 65 -5 65 -5 0 -67 0 -67 -65
-3 -65 -3 -3 -122 -3 -123 -89 0 -90 0 0 323 c0 178 3 327 7 330 3 4 93 7 200
7 l193 0 0 -30z m475 16 c46 -13 45 -10 26 -94 -14 -61 -15 -63 -40 -57 -14 3
-58 8 -97 12 -62 5 -77 3 -112 -17 -57 -32 -87 -89 -86 -166 1 -111 52 -174
149 -182 l55 -4 0 56 0 56 -45 0 -45 0 0 70 0 70 130 0 130 0 -2 -182 -3 -183
-85 -18 c-271 -57 -454 58 -468 294 -10 169 65 292 208 342 54 19 226 21 285
3z"/>
</g>
</svg>
