<?xml version="1.0" standalone="no"?>
<!DOCTYPE svg PUBLIC "-//W3C//DTD SVG 20010904//EN"
 "http://www.w3.org/TR/2001/REC-SVG-20010904/DTD/svg10.dtd">
<svg version="1.0" xmlns="http://www.w3.org/2000/svg"
 width="1200.000000pt" height="1200.000000pt" viewBox="0 0 1200.000000 1200.000000"
 preserveAspectRatio="xMidYMid meet">
<metadata>
Created by potrace 1.16, written by Peter Selinger 2001-2019
</metadata>
<g transform="translate(0.000000,1200.000000) scale(0.100000,-0.100000)"
fill="#000000" stroke="none">
<path d="M6868 7490 c-154 -26 -308 -173 -333 -318 -6 -37 -8 -38 -71 -55
-124 -32 -223 -122 -265 -242 -19 -54 -19 -84 -17 -868 l3 -812 30 -59 c54
-106 167 -193 275 -211 35 -6 39 -10 45 -46 18 -108 121 -235 232 -287 l58
-27 810 0 810 0 57 27 c65 30 139 95 176 153 14 22 35 71 47 108 20 68 21 69
70 85 119 41 205 117 258 230 l32 67 0 455 0 455 -31 65 c-57 119 -142 193
-262 230 -61 19 -95 20 -638 20 l-574 0 0 -430 0 -430 340 0 340 0 0 -95 0
-95 -625 0 -625 0 0 620 0 620 1040 0 1040 0 0 240 0 240 -162 2 -162 3 -11
50 c-17 73 -50 132 -109 190 -63 64 -140 102 -231 115 -83 11 -1477 12 -1547
0z m1585 -156 c25 -9 65 -34 87 -56 39 -37 79 -106 80 -135 0 -10 -183 -13
-880 -13 l-880 0 0 -860 0 -860 -95 0 -95 0 0 858 c0 954 -3 910 67 992 21 24
60 53 87 66 l51 24 766 0 c672 0 771 -2 812 -16z m-1923 -1204 l0 -860 865 0
865 0 0 -105 0 -105 -882 2 -883 3 -40 22 c-52 28 -89 68 -114 123 -20 44 -21
62 -21 809 0 571 3 774 12 805 21 69 120 155 191 165 4 1 7 -386 7 -859z
m2420 765 l0 -95 -970 0 -970 0 0 95 0 95 970 0 970 0 0 -95z m-169 -601 c58
-27 116 -85 143 -143 20 -44 21 -63 24 -439 3 -435 1 -460 -58 -540 -25 -35
-118 -102 -142 -102 -5 0 -8 232 -8 515 l0 515 -510 0 -510 0 0 110 0 111 508
-3 c492 -3 508 -4 553 -24z m-181 -852 c0 -560 -1 -573 -60 -645 -18 -20 -53
-49 -78 -65 l-47 -27 -758 -3 c-493 -2 -771 1 -796 8 -79 21 -163 105 -177
178 l-6 32 863 2 864 3 0 410 0 410 -342 3 -343 2 0 100 0 100 440 0 440 0 0
-508z"/>
<path d="M3430 7280 l0 -170 -175 0 -175 0 0 -1280 0 -1280 415 0 415 0 0 515
0 515 525 0 525 0 0 410 0 410 -519 0 -519 0 -7 83 c-4 46 -5 92 -3 103 3 19
28 19 1036 22 l1032 2 0 420 0 420 -1275 0 -1275 0 0 -170z m2408 -72 l3 -98
-1036 0 -1035 0 0 -355 0 -355 -95 0 -95 0 -2 448 c-2 246 -2 450 0 455 2 4
510 6 1130 5 l1127 -3 3 -97z m-2408 -593 l0 -355 695 0 696 0 -3 -97 -3 -98
-410 -2 c-225 -2 -537 -3 -692 -3 l-283 0 0 -685 0 -686 -100 3 -100 3 0 595
c0 327 0 839 0 1138 l0 542 100 0 100 0 0 -355z m2410 245 l0 -110 -965 0
-965 0 0 110 0 110 965 0 965 0 0 -110z m-1020 -1035 l0 -95 -525 0 -525 0 0
-520 0 -521 -95 3 -95 3 -1 605 c0 333 0 608 0 613 1 4 280 7 621 7 l620 0 0
-95z"/>
</g>
</svg>
